<svg width="40" height="40" viewBox="0 0 40 40" xmlns="http://www.w3.org/2000/svg"><title>icon_name_payment-default3 copy</title><g fill="none" fill-rule="evenodd"><circle fill="#F6F6F6" cx="20" cy="20" r="20"/><path d="M14.388 15.182c1.937-1.479 8.621-7.24 8.621-7.24l.041 8.062L28.04 16l-.032 12.026-14.548-.024c-.811 0-1.46-.736-1.46-1.566l-.046-7.578c0-1.156.095-1.89 2.435-3.676z" fill="#F9C637"/><path d="M23.028 21l-8.938 5.974 10.926-4.026v-6.932l-1.943.044-.045 4.94z" fill="#C8A332"/><path d="M18.377 16.508c.435-.48 1.07-.65 1.418-.379.348.272.279.882-.156 1.363-.434.48-1.069.65-1.417.379-.349-.272-.279-.882.155-1.363" fill="#000106"/></g></svg>