<svg height="504pt" viewBox="-24 0 504 504.296" width="504pt" xmlns="http://www.w3.org/2000/svg"><path d="m320.132812 328.289062-18.5625-9.761718c-24.636718 21.121094-51.757812 33.761718-73.4375 33.761718-21.679687 0-48.800781-12.640624-73.441406-33.761718l-18.558594 9.761718c-79.542968 56.871094-135.984374 40-135.984374 112v64.007813h455.96875s0-32.007813 0-64.007813c0-72-56.441407-55.128906-135.984376-112zm0 0" fill="#545c66"/><path d="m228.148438 344.753906-84-56.011718v24.011718l18.9375 68.183594 65.054687-28.183594 65.480469 27.382813 18.519531-67.382813v-24.011718zm0 0" fill="#f5f7fa"/><path d="m354.851562 72c20.488282 45.601562 13.28125 96 13.28125 96s-3.121093-45.769531-31.761718-64zm0 0" fill="#f6bb42"/><path d="m354.851562 72-18.480468 32c-72.085938-45.839844-131.519532 77.769531-243.039063 44.800781-4.488281-1.359375-9.046875-2.953125-13.679687-4.800781 0 0 8.480468-144 148.480468-144 74.160157 0 109.839844 34.320312 126.71875 72zm0 0" fill="#ffce54"/><path d="m368.132812 168-.878906 16c-9.121094 85.199219-88.960937 160-139.121094 160-53.28125 0-140-84.398438-140-176v-20.871094c117.246094 36.625 176.160157-88.96875 248.238282-43.128906 28.640625 18.230469 31.761718 64 31.761718 64zm0 0" fill="#f0c7b7"/><path d="m276.132812 504.296875h-17.167968l53.175781-191.542969 44.113281 37.75-44.128906 57.496094 16.007812 15.992188zm0 0" fill="#656d78"/><path d="m180.132812 504.296875h17.167969l-53.175781-191.542969-44.113281 37.75 44.128906 57.496094-16.007813 15.992188zm0 0" fill="#656d78"/><path d="m228.132812 352 65.488282 28.136719-34.65625 124.160156h-61.664063l-34.214843-123.359375zm0 0" fill="#e6e9ed"/><path d="m240.132812 392h-24l-21.082031-24.910156 33.082031-15.089844 33.085938 14.585938zm0 0" fill="#ed5565"/><path d="m256.132812 504.296875h-56v-72.296875l16-40h24l16 40zm0 0" fill="#da4453"/></svg>